<?xml version="1.0" encoding="UTF-8" standalone="no"?>
<svg
   xmlns:dc="http://purl.org/dc/elements/1.1/"
   xmlns:cc="http://creativecommons.org/ns#"
   xmlns:rdf="http://www.w3.org/1999/02/22-rdf-syntax-ns#"
   xmlns:svg="http://www.w3.org/2000/svg"
   xmlns="http://www.w3.org/2000/svg"
   xmlns:sodipodi="http://sodipodi.sourceforge.net/DTD/sodipodi-0.dtd"
   xmlns:inkscape="http://www.inkscape.org/namespaces/inkscape"
   t="1618724538839"
   class="icon"
   viewBox="0 0 1024 1024"
   version="1.1"
   p-id="2629"
   id="mx_n_1618724538844"
   width="200"
   height="200"
   sodipodi:docname="logo.svg"
   inkscape:version="0.92.4 (5da689c313, 2019-01-14)">
  <metadata
     id="metadata875">
    <rdf:RDF>
      <cc:Work
         rdf:about="">
        <dc:format>image/svg+xml</dc:format>
        <dc:type
           rdf:resource="http://purl.org/dc/dcmitype/StillImage" />
        <dc:title></dc:title>
      </cc:Work>
    </rdf:RDF>
  </metadata>
  <sodipodi:namedview
     pagecolor="#ffffff"
     bordercolor="#666666"
     borderopacity="1"
     objecttolerance="10"
     gridtolerance="10"
     guidetolerance="10"
     inkscape:pageopacity="0"
     inkscape:pageshadow="2"
     inkscape:window-width="1280"
     inkscape:window-height="683"
     id="namedview873"
     showgrid="false"
     inkscape:zoom="2.4209375"
     inkscape:cx="51.232637"
     inkscape:cy="94.62347"
     inkscape:window-x="0"
     inkscape:window-y="0"
     inkscape:window-maximized="1"
     inkscape:current-layer="mx_n_1618724538844" />
  <defs
     id="defs864">
    <style
       type="text/css"
       id="style862" />
    <filter
       inkscape:collect="always"
       style="color-interpolation-filters:sRGB"
       id="filter1819"
       x="-0.0825307"
       width="1.1650614"
       y="-0.11821216"
       height="1.2364243">
      <feGaussianBlur
         inkscape:collect="always"
         stdDeviation="1.4382479"
         id="feGaussianBlur1821" />
    </filter>
  </defs>
  <path
     d="M268.2 89.2h498.9c92 0 166.3 74.3 166.3 166.3v498.9c0 92-74.3 166.3-166.3 166.3H268.2c-92 0-166.3-74.3-166.3-166.3V255.5c0-92 74.3-166.3 166.3-166.3z m0 0"
     p-id="2630"
     id="path866"
     style="fill:#d92916;fill-opacity:1"
     fill="#D92916" />
  <path
     d="M640 196.4c19.7 4.8 38.2 13.8 54.2 26.2 6.1 4.3 10.8 10.1 13.8 16.9 4.3 10.6 3.2 22.6-3.1 32.1-10.2 15.9-31.3 20.7-47.3 10.7-3.8-2.4-6.6-5.9-10.4-7.9-10.1-7.1-22.1-11.1-34.5-11.4-8.5 0.9-16.4 5-22.1 11.4-5.7 5.8-8.2 14.1-6.6 22.1l12.8 48c30.7 1.2 60.6 9.9 87 25.5 25.6 15.7 48.2 35.9 66.6 59.7 15.7 20.6 27.4 44.1 34.5 69 7.5 25.9 10.5 52.9 8.6 79.7-1.6 22.6-6.3 44.9-13.8 66.3-19.9 52.4-56.2 97-103.6 127-34.7 21.6-73.7 35.3-114.3 40-27.8 4.1-56.1 4.1-83.9 0-57.6-10-110.6-38.1-151.2-80.1-71-72-100.6-175.1-78.4-273.8 20.6-93.6 85.9-171 174.7-207.1 12.6-5 26.7-4.2 38.7 2.1 10.3 7.4 15.8 19.9 14.2 32.5-1.5 12.8-10 23.7-22.1 28.3-76.2 29-130.3 97.4-141.2 178.1-5 37.1-0.7 74.8 12.4 109.8 18.8 51.1 55.6 93.6 103.6 119.4 29.1 15.1 61.4 23 94.2 22.8 27-0.2 53.7-4.9 79.1-14.2 43.7-15.6 80.2-46.8 102.2-87.7 5.5-9.8 9.9-20.3 13.1-31.1 9.1-31.3 9.1-64.6 0-96-8-26.1-23.2-49.4-43.8-67.3-9-7.9-18.7-15-29-21.1-9.1-5-18.9-8.7-29-11 6.9 27.6 14.5 55.2 21.7 83.2l3.5 20c1.9 57.7-38.3 108.3-94.9 119.4-28.6 5.7-58.3 0.1-82.9-15.5-22.9-15.2-40.1-37.5-49-63.5-5.1-14.6-7.8-29.8-8.3-45.2-1.8-33.8 7.4-67.2 26.2-95.3 23.3-32.6 57.3-56 96-66.3l-8.3-32.1c-7-22.9-5.1-47.5 5.2-69 6.1-12 14.5-22.7 24.9-31.4 10.5-10.2 23.1-17.9 36.9-22.8 17.5-4.7 36-4.9 53.6-0.4z m0 0"
     p-id="2631"
     id="path868"
     style="fill:#d92916;fill-opacity:1"
     fill="#FFFFFF" />
  <path
     d="M497.4 448.4c-10.2 10.8-17.3 24.1-20.4 38.7-2.6 13.2-2.6 26.8 0 40 2.6 14.9 10.8 28.2 22.8 37.3 10.1 6.9 22.6 9.3 34.5 6.6 21.8-4.2 37.8-22.7 39-44.9-0.7-5.4-1.7-10.7-3.1-15.9l-23.8-90.1c-18.5 5-35.4 14.7-49 28.3z m0 0"
     fill="#D92916"
     p-id="2632"
     id="path870"
     style="fill:#d92916;fill-opacity:1" />
  <g
     aria-label="BH"
     transform="matrix(10.282999,0,0,9.1178082,-516.38023,-171.26206)"
     style="font-style:normal;font-variant:normal;font-weight:bold;font-stretch:normal;font-size:40px;line-height:1.25;font-family:'JetBrains Mono';-inkscape-font-specification:'JetBrains Mono, Bold';font-variant-ligatures:normal;font-variant-caps:normal;font-variant-numeric:normal;font-feature-settings:normal;text-align:center;letter-spacing:0px;word-spacing:0px;writing-mode:lr-tb;text-anchor:middle;fill:#000000;fill-opacity:1;stroke:none;opacity:0.6;filter:url(#filter1819)"
     id="flowRoot877">
    <path
       d="m 79.095625,86.729403 v -29.2 h 8.96 q 4.24,0 6.72,2.04 2.48,2 2.48,5.48 0,2.6 -1.52,4.28 -1.48,1.68 -3.84,2.08 2.64,0.32 4.32,2.16 1.72,1.8 1.72,4.84 0,3.8 -2.56,6.08 -2.52,2.24 -6.88,2.24 z m 4.88,-17.16 h 4 q 1.96,0 3.12,-1.04 1.16,-1.08 1.16,-2.92 0,-1.8 -1.16,-2.84 -1.12,-1.08 -3.12,-1.08 h -4 z m 0,13 h 4.2 q 2.2,0 3.44,-1.16 1.28,-1.2 1.28,-3.24 0,-2.04 -1.28,-3.28 -1.24,-1.28 -3.44,-1.28 h -4.2 z"
       id="path904"
       style="fill:#000000;fill-opacity:1"
       inkscape:connector-curvature="0" />
    <path
       d="m 103.08,86.729403 v -29.2 h 5 v 11.72 h 7.84 v -11.72 h 5 v 29.2 h -5 v -12.84 h -7.84 v 12.84 z"
       id="path906"
       style="fill:#000000;fill-opacity:1"
       inkscape:connector-curvature="0" />
  </g>
  <g
     aria-label="BH"
     transform="matrix(9.7933322,0,0,8.7671235,-467.40973,-145.96739)"
     style="font-style:normal;font-variant:normal;font-weight:bold;font-stretch:normal;font-size:40px;line-height:1.25;font-family:'JetBrains Mono';-inkscape-font-specification:'JetBrains Mono, Bold';font-variant-ligatures:normal;font-variant-caps:normal;font-variant-numeric:normal;font-feature-settings:normal;text-align:center;letter-spacing:0px;word-spacing:0px;writing-mode:lr-tb;text-anchor:middle;fill:#ffffff;fill-opacity:1;stroke:none"
     id="flowRoot877-3">
    <path
       inkscape:connector-curvature="0"
       d="m 79.095625,86.729403 v -29.2 h 8.96 q 4.24,0 6.72,2.04 2.48,2 2.48,5.48 0,2.6 -1.52,4.28 -1.48,1.68 -3.84,2.08 2.64,0.32 4.32,2.16 1.72,1.8 1.72,4.84 0,3.8 -2.56,6.08 -2.52,2.24 -6.88,2.24 z m 4.88,-17.16 h 4 q 1.96,0 3.12,-1.04 1.16,-1.08 1.16,-2.92 0,-1.8 -1.16,-2.84 -1.12,-1.08 -3.12,-1.08 h -4 z m 0,13 h 4.2 q 2.2,0 3.44,-1.16 1.28,-1.2 1.28,-3.24 0,-2.04 -1.28,-3.28 -1.24,-1.28 -3.44,-1.28 h -4.2 z"
       id="path904-3"
       style="fill:#ffffff;fill-opacity:1" />
    <path
       inkscape:connector-curvature="0"
       d="m 103.08,86.729403 v -29.2 h 5 v 11.72 h 7.84 v -11.72 h 5 v 29.2 h -5 v -12.84 h -7.84 v 12.84 z"
       id="path906-3"
       style="fill:#ffffff;fill-opacity:1" />
  </g>
</svg>
