<?xml version="1.0" standalone="no"?><!DOCTYPE svg PUBLIC "-//W3C//DTD SVG 1.1//EN" "http://www.w3.org/Graphics/SVG/1.1/DTD/svg11.dtd"><svg t="1622773939157" class="icon" viewBox="0 0 1024 1024" version="1.1" xmlns="http://www.w3.org/2000/svg" p-id="2746" id="mx_n_1622773939161" xmlns:xlink="http://www.w3.org/1999/xlink" width="200" height="200"><defs><style type="text/css"></style></defs><path d="M0 0h1024v1024H0z" fill="#aaa" p-id="2747"></path><path d="M512 853.3248c-188.5184 0-341.3248-152.832-341.3248-341.3248 0-188.5184 152.832-341.3248 341.3248-341.3248 188.5184 0 341.3248 152.832 341.3248 341.3248 0 188.5184-152.832 341.3248-341.3248 341.3248z m0-298.6496a42.6752 42.6752 0 1 0 0-85.3504 42.6752 42.6752 0 0 0 0 85.3504z m0 197.3248A240 240 0 0 1 272 512a16 16 0 1 0-32 0c0 150.2208 121.7792 272 272 272a16 16 0 1 0 0-32z m0-480A240 240 0 0 1 752 512a16 16 0 1 0 32 0c0-150.2208-121.7792-272-272-272a16 16 0 1 0 0 32z" fill="#FFFFFF" p-id="2748"></path></svg>