<?xml version="1.0" encoding="UTF-8" standalone="no"?>
<svg
   xmlns:dc="http://purl.org/dc/elements/1.1/"
   xmlns:cc="http://creativecommons.org/ns#"
   xmlns:rdf="http://www.w3.org/1999/02/22-rdf-syntax-ns#"
   xmlns:svg="http://www.w3.org/2000/svg"
   xmlns="http://www.w3.org/2000/svg"
   xmlns:sodipodi="http://sodipodi.sourceforge.net/DTD/sodipodi-0.dtd"
   xmlns:inkscape="http://www.inkscape.org/namespaces/inkscape"
   t="1616252981888"
   class="icon"
   viewBox="0 0 1024 1024"
   version="1.1"
   p-id="1730"
   width="200"
   height="200"
   id="svg3927"
   sodipodi:docname="CloudMusic_icon.svg"
   inkscape:version="0.92.4 (5da689c313, 2019-01-14)">
  <metadata
     id="metadata3931">
    <rdf:RDF>
      <cc:Work
         rdf:about="">
        <dc:format>image/svg+xml</dc:format>
        <dc:type
           rdf:resource="http://purl.org/dc/dcmitype/StillImage" />
        <dc:title></dc:title>
      </cc:Work>
    </rdf:RDF>
  </metadata>
  <sodipodi:namedview
     pagecolor="#ffffff"
     bordercolor="#666666"
     borderopacity="1"
     objecttolerance="10"
     gridtolerance="10"
     guidetolerance="10"
     inkscape:pageopacity="0"
     inkscape:pageshadow="2"
     inkscape:window-width="1280"
     inkscape:window-height="661"
     id="namedview3929"
     showgrid="false"
     inkscape:zoom="2.325"
     inkscape:cx="32.858552"
     inkscape:cy="106.13316"
     inkscape:window-x="0"
     inkscape:window-y="0"
     inkscape:window-maximized="1"
     inkscape:current-layer="svg3927" />
  <defs
     id="defs3923">
    <style
       type="text/css"
       id="style3921" />
  </defs>
  <path
     d="M512 938.666667C276.352 938.666667 85.333333 747.648 85.333333 512S276.352 85.333333 512 85.333333s426.666667 191.018667 426.666667 426.666667-191.018667 426.666667-426.666667 426.666667z m-46.336-445.098667c10.24-35.84 45.866667-65.749333 84.906667-70.314667 7.978667 29.610667 16.554667 58.581333 23.253333 88.021334 2.261333 9.813333 1.578667 21.12-0.768 31.018666-9.088 38.058667-53.248 52.992-84.394667 29.226667-22.613333-17.28-31.658667-47.786667-22.997333-77.952z m162.858667-8.405333c-5.333333-19.84-10.922667-39.552-16.768-60.586667 21.333333 5.546667 38.741333 15.36 53.546666 29.781333 53.632 52.096 59.093333 140.8 12.544 201.856-48.426667 63.573333-134.613333 91.050667-214.528 68.48-98.218667-27.733333-162.474667-125.952-146.816-226.816 11.690667-75.434667 54.186667-128.170667 123.733334-159.274666 17.365333-7.765333 24.746667-23.893333 17.92-39.68-6.698667-15.530667-23.04-21.504-40.277334-14.634667-116.096 46.464-184.32 176.384-156.586666 298.112 30.421333 133.034667 149.12 220.288 284.8 207.317333 73.898667-7.04 134.997333-40.448 179.882666-100.138666 64.256-85.418667 55.338667-204.074667-19.754666-277.290667-28.416-27.733333-62.762667-43.434667-101.973334-49.194667-3.541333-0.554667-9.258667-2.218667-9.898666-4.522666-3.712-13.354667-7.68-26.965333-8.789334-40.704-1.237333-15.232 12.373333-27.306667 27.733334-27.52 10.794667-0.128 18.517333 5.546667 25.728 12.8 12.928 12.8 30.037333 13.738667 42.154666 2.645333 12.373333-11.264 12.629333-28.928 0.768-43.008-24.149333-28.672-67.669333-38.016-103.68-22.314667-36.138667 15.786667-56.362667 50.645333-51.2 89.301334 1.621333 11.946667 4.693333 23.765333 7.125334 35.925333l-11.093334 3.072a164.821333 164.821333 0 0 0-89.514666 60.330667c-39.296 52.053333-39.936 120.661333-1.749334 168.405333 54.357333 68.010667 159.872 54.784 192.981334-24.234667 12.117333-28.842667 11.733333-58.368 3.712-88.106666z"
     p-id="1731"
     fill="#d81e06"
     id="path3925" />
  <path
     style="opacity:1;fill:#ffffff;fill-opacity:1;stroke-width:0.43010753"
     d="M 92.054428,153.47016 C 73.757781,149.99973 58.814959,136.86002 52.718997,118.88125 50.201897,111.45759 49.47509,101.9609 50.829586,94.193644 53.576688,78.440594 64.62552,63.752296 78.78708,57.027001 c 4.08207,-1.938566 6.387082,-2.231993 8.265645,-1.052212 1.885954,1.184422 2.860873,3.195997 2.576499,5.316159 -0.296684,2.211951 -1.567362,3.51087 -5.24379,5.360337 -14.909524,7.5004 -22.971635,20.233258 -23.001444,36.327225 -0.01612,8.70194 2.090934,15.66311 6.875917,22.71629 8.276066,12.19913 23.625365,19.1497 38.050163,17.23011 15.3817,-2.04692 27.80129,-12.07823 31.44997,-25.40215 1.03946,-3.79576 1.045,-11.65312 0.0109,-15.48387 -2.31808,-8.587405 -8.60205,-15.931118 -15.8145,-18.481502 -1.26621,-0.447747 -2.3556,-0.667256 -2.42085,-0.487798 -0.0652,0.179458 0.75025,3.467455 1.81224,7.306661 3.03391,10.968009 3.04193,15.763239 0.0372,22.266529 -3.5406,7.66318 -10.82482,12.2791 -19.36523,12.27152 -8.842456,-0.008 -16.228448,-4.66686 -20.241089,-12.76789 -6.747194,-13.621755 -0.198892,-30.439042 14.649704,-37.623228 1.892473,-0.915635 4.311825,-1.906 5.376345,-2.200812 1.06451,-0.294813 2.09779,-0.675377 2.29616,-0.845698 0.19837,-0.170321 0.0337,-1.912681 -0.36588,-3.87191 -1.95823,-9.600989 1.17437,-16.543333 9.17526,-20.333823 2.63123,-1.246568 3.23483,-1.36089 7.17403,-1.358779 3.77486,0.002 4.60629,0.145031 6.7958,1.168891 3.36207,1.572176 4.8721,2.701323 6.36072,4.75631 2.44978,3.381809 1.27995,7.695447 -2.41791,8.915849 -1.98724,0.655848 -3.95566,-0.0071 -6.46219,-2.176525 -1.05607,-0.914019 -2.58284,-1.786179 -3.39282,-1.938132 -3.41416,-0.640501 -6.69277,1.865386 -6.6867,5.110754 0.003,1.751753 1.37592,8.263838 1.83963,8.727547 0.12816,0.128157 1.84656,0.58735 3.81867,1.02043 9.03381,1.983841 15.6593,5.99981 21.01288,12.736739 9.75145,12.271161 11.72725,28.586697 5.16108,42.618417 -2.35899,5.04109 -4.41735,7.97573 -8.74506,12.46802 -6.32709,6.56769 -13.71668,10.94158 -22.44539,13.28539 -3.75384,1.00797 -5.2861,1.17364 -12.04301,1.30206 -5.303809,0.10081 -8.713069,-0.0371 -10.825632,-0.43775 z m 13.299622,-40.00192 c 4.03788,-1.44097 6.62428,-5.05371 7.04321,-9.83807 0.23794,-2.71735 -0.38279,-5.670005 -3.56704,-16.967627 -1.28012,-4.541822 -1.31795,-4.564016 -5.39085,-3.162732 -9.442173,3.248584 -15.329594,13.336328 -12.619331,21.622479 2.189954,6.6954 8.693769,10.43013 14.534011,8.34595 z"
     id="path4752"
     inkscape:connector-curvature="0"
     transform="scale(5.12)" />
</svg>
