<?xml version="1.0" standalone="no"?><!DOCTYPE svg PUBLIC "-//W3C//DTD SVG 1.1//EN" "http://www.w3.org/Graphics/SVG/1.1/DTD/svg11.dtd"><svg t="1620034213691" class="icon" viewBox="0 0 1024 1024" version="1.1" xmlns="http://www.w3.org/2000/svg" p-id="3072" xmlns:xlink="http://www.w3.org/1999/xlink" width="200" height="200"><defs><style type="text/css"></style></defs><path d="M569.1 403.9l204.4-204.4c14.1-14.1 37-14.1 51.1 0 14.1 14.1 14.1 37 0 51.1L620.2 455c-14.1 14.1-37 14.1-51.1 0-14.1-14.1-14.1-37 0-51.1z" p-id="3073" fill="#ffffff"></path><path d="M807.2 216.8v204.8c0 20 16.2 36.1 36.1 36.1 20 0 36.1-16.2 36.1-36.1V210.8c0-36.6-29.7-66.3-66.3-66.3H602.4c-20 0-36.1 16.2-36.1 36.1s16.2 36.1 36.1 36.1h204.8zM454.9 620.1L250.5 824.5c-14.1 14.1-37 14.1-51.1 0-14.1-14.1-14.1-37 0-51.1L403.8 569c14.1-14.1 37-14.1 51.1 0 14.1 14.1 14.1 37 0 51.1z" p-id="3074" fill="#ffffff"></path><path d="M216.8 807.2V602.4c0-20-16.2-36.1-36.1-36.1s-36.1 16.2-36.1 36.1v210.8c0 36.6 29.7 66.3 66.3 66.3h210.8c20 0 36.1-16.2 36.1-36.1 0-20-16.2-36.1-36.1-36.1H216.8z" p-id="3075" fill="#ffffff"></path><path d="M927.6 1024H96.4C43.2 1024 0 980.8 0 927.6V96.4C0 43.2 43.2 0 96.4 0h831.2c53.1 0 96.4 43.2 96.4 96.4v831.2c0 53.2-43.2 96.4-96.4 96.4zM96.4 72.3c-13.3 0-24.1 10.8-24.1 24.1v831.2c0 13.3 10.8 24.1 24.1 24.1h831.2c13.3 0 24.1-10.8 24.1-24.1V96.4c0-13.3-10.8-24.1-24.1-24.1H96.4z" p-id="3076" fill="#ffffff"></path></svg>