<?xml version="1.0" encoding="UTF-8" standalone="no"?>
<svg
   xmlns:dc="http://purl.org/dc/elements/1.1/"
   xmlns:cc="http://creativecommons.org/ns#"
   xmlns:rdf="http://www.w3.org/1999/02/22-rdf-syntax-ns#"
   xmlns:svg="http://www.w3.org/2000/svg"
   xmlns="http://www.w3.org/2000/svg"
   xmlns:sodipodi="http://sodipodi.sourceforge.net/DTD/sodipodi-0.dtd"
   xmlns:inkscape="http://www.inkscape.org/namespaces/inkscape"
   t="1622713895549"
   class="icon"
   viewBox="0 0 1024 1024"
   version="1.1"
   p-id="12214"
   width="200"
   height="200"
   id="svg162"
   sodipodi:docname="left.svg"
   inkscape:version="0.92.4 (5da689c313, 2019-01-14)">
  <metadata
     id="metadata166">
    <rdf:RDF>
      <cc:Work
         rdf:about="">
        <dc:format>image/svg+xml</dc:format>
        <dc:type
           rdf:resource="http://purl.org/dc/dcmitype/StillImage" />
        <dc:title></dc:title>
      </cc:Work>
    </rdf:RDF>
  </metadata>
  <sodipodi:namedview
     pagecolor="#ffffff"
     bordercolor="#666666"
     borderopacity="1"
     objecttolerance="10"
     gridtolerance="10"
     guidetolerance="10"
     inkscape:pageopacity="0"
     inkscape:pageshadow="2"
     inkscape:window-width="1280"
     inkscape:window-height="683"
     id="namedview164"
     showgrid="false"
     inkscape:zoom="1.2662705"
     inkscape:cx="52.751983"
     inkscape:cy="66.569397"
     inkscape:window-x="0"
     inkscape:window-y="0"
     inkscape:window-maximized="1"
     inkscape:current-layer="svg162" />
  <defs
     id="defs158">
    <style
       type="text/css"
       id="style156" />
  </defs>
  <path
     d="M 962.86558,116.8 H 45.850744 a 45.850744,45.6 0 0 1 0,-91.2 H 962.86558 a 45.850744,45.6 0 0 1 0,91.2 z m 15.28368,881.6 H 61.134326 a 45.850744,45.6 0 0 1 0,-91.2 H 978.14926 a 45.850744,45.6 0 0 1 0,91.2 z M 618.98505,329.60001 H 53.49253 a 45.85075,45.600006 0 0 1 0,-91.20001 h 565.49252 a 45.85075,45.600007 0 0 1 0,91.20001 z M 607.52236,557.6 H 45.850744 a 45.850744,45.6 0 0 1 0,-91.2 H 607.52236 a 45.850744,45.6 0 0 1 0,91.2 z m 0,228 H 49.671632 a 45.850749,45.600005 0 0 1 0,-91.20001 H 607.52236 a 45.850749,45.600005 0 0 1 0,91.20001 z M 993.43283,748.45119 755.6814,512 993.43283,275.5184 Z"
     p-id="12215"
     id="path160"
     inkscape:connector-curvature="0"
     style="fill:#ffffff;stroke-width:1.30983663" />
</svg>
