<?xml version="1.0" encoding="UTF-8" standalone="no"?>
<svg
   xmlns:dc="http://purl.org/dc/elements/1.1/"
   xmlns:cc="http://creativecommons.org/ns#"
   xmlns:rdf="http://www.w3.org/1999/02/22-rdf-syntax-ns#"
   xmlns:svg="http://www.w3.org/2000/svg"
   xmlns="http://www.w3.org/2000/svg"
   xmlns:sodipodi="http://sodipodi.sourceforge.net/DTD/sodipodi-0.dtd"
   xmlns:inkscape="http://www.inkscape.org/namespaces/inkscape"
   t="1619957439777"
   class="icon"
   viewBox="0 0 1024 1024"
   version="1.1"
   p-id="12312"
   width="200"
   height="200"
   id="svg62"
   sodipodi:docname="list.svg"
   inkscape:version="0.92.4 (5da689c313, 2019-01-14)">
  <metadata
     id="metadata66">
    <rdf:RDF>
      <cc:Work
         rdf:about="">
        <dc:format>image/svg+xml</dc:format>
        <dc:type
           rdf:resource="http://purl.org/dc/dcmitype/StillImage" />
        <dc:title></dc:title>
      </cc:Work>
    </rdf:RDF>
  </metadata>
  <sodipodi:namedview
     pagecolor="#ffffff"
     bordercolor="#666666"
     borderopacity="1"
     objecttolerance="10"
     gridtolerance="10"
     guidetolerance="10"
     inkscape:pageopacity="0"
     inkscape:pageshadow="2"
     inkscape:window-width="1280"
     inkscape:window-height="683"
     id="namedview64"
     showgrid="false"
     inkscape:zoom="2.44"
     inkscape:cx="20.491803"
     inkscape:cy="99.385246"
     inkscape:window-x="0"
     inkscape:window-y="0"
     inkscape:window-maximized="1"
     inkscape:current-layer="svg62" />
  <defs
     id="defs58">
    <style
       type="text/css"
       id="style56" />
  </defs>
  <path
     d="M832 1024H192c-106.048 0-192-86.016-192-192V192a192 192 0 0 1 192-192h640a192 192 0 0 1 192 192v640c0 105.984-85.952 192-192 192z m64-832a64 64 0 0 0-64-64H192a64 64 0 0 0-64 64v640c0 35.392 28.608 64 64 64h640c35.392 0 64-28.608 64-64V192z m-384 192v-64h256v64H512z m-256 192h192v192h-192v-192z m64 128h64v-64h-64v64z m-64-448h192v192h-192v-192z m64 128h64v-64h-64v64z m448 320H512v-64h256v64z"
     fill="#336699"
     p-id="12313"
     data-spm-anchor-id="a313x.7781069.0.i16"
     id="path60"
     style="fill:#262623;fill-opacity:1" />
</svg>
