<?xml version="1.0" encoding="UTF-8" standalone="no"?>
<svg
   xmlns:dc="http://purl.org/dc/elements/1.1/"
   xmlns:cc="http://creativecommons.org/ns#"
   xmlns:rdf="http://www.w3.org/1999/02/22-rdf-syntax-ns#"
   xmlns:svg="http://www.w3.org/2000/svg"
   xmlns="http://www.w3.org/2000/svg"
   xmlns:sodipodi="http://sodipodi.sourceforge.net/DTD/sodipodi-0.dtd"
   xmlns:inkscape="http://www.inkscape.org/namespaces/inkscape"
   t="1622128089848"
   class="icon"
   viewBox="0 0 1024 1024"
   version="1.1"
   p-id="2284"
   width="200"
   height="200"
   id="svg62"
   sodipodi:docname="love_active.svg"
   inkscape:version="0.92.4 (5da689c313, 2019-01-14)">
  <metadata
     id="metadata66">
    <rdf:RDF>
      <cc:Work
         rdf:about="">
        <dc:format>image/svg+xml</dc:format>
        <dc:type
           rdf:resource="http://purl.org/dc/dcmitype/StillImage" />
        <dc:title></dc:title>
      </cc:Work>
    </rdf:RDF>
  </metadata>
  <sodipodi:namedview
     pagecolor="#ffffff"
     bordercolor="#666666"
     borderopacity="1"
     objecttolerance="10"
     gridtolerance="10"
     guidetolerance="10"
     inkscape:pageopacity="0"
     inkscape:pageshadow="2"
     inkscape:window-width="1280"
     inkscape:window-height="683"
     id="namedview64"
     showgrid="false"
     inkscape:zoom="2.44"
     inkscape:cx="76.804942"
     inkscape:cy="107.33998"
     inkscape:window-x="0"
     inkscape:window-y="0"
     inkscape:window-maximized="1"
     inkscape:current-layer="svg62" />
  <defs
     id="defs58">
    <style
       type="text/css"
       id="style56" />
  </defs>
  <path
     d="m 767.74183,99.41865 c 56.28218,0 109.2035,23.14542 148.98685,65.17207 39.7845,41.95863 61.67,97.7364 61.67,157.06959 0,59.3566 -21.8855,115.13437 -62.24919,157.72785 L 511.98149,921.6112 107.253,478.75319 C 67.491876,436.79577 45.606336,381.01679 45.606336,321.6602 c 0,-59.3332 21.88554,-115.11097 61.646664,-157.09179 39.78449,-42.00434 92.70592,-65.14976 148.98798,-65.14976 55.59078,0 107.86654,22.5786 147.47234,63.59497 l 73.13474,93.68579 c 8.66103,11.08862 21.55153,17.51651 35.15441,17.51651 v 0 c 13.60288,0 26.51562,-6.42789 35.17665,-17.51651 l 73.09038,-93.68579 c 39.60694,-41.01517 91.90368,-63.59497 147.47233,-63.59497 m 0,-48.21865 c -65.56435,0 -131.1311,26.41684 -181.17871,79.25171 l -74.56053,95.5469 -74.58277,-95.5469 C 387.39433,77.61684 321.8066,51.2 256.2411,51.2 c -65.58888,0 -131.15449,26.41684 -181.202104,79.25171 -100.051995,105.59932 -100.051995,276.8437 0,382.44302 L 484.596,961.0507 c 7.9044,8.7348 16.76384,11.7493 27.40659,11.7493 10.48502,0 20.08137,-3.7209 27.02821,-11.3973 L 948.94518,512.89473 c 100.07312,-105.59932 100.07312,-276.8437 0,-382.44302 C 898.91844,77.61684 833.32957,51.2 767.74183,51.2 Z"
     p-id="2285"
     id="path60"
     style="fill:#ca4034;fill-opacity:1;stroke-width:1.17272317"
     inkscape:connector-curvature="0" />
  <path
     style="fill:#ca4034;fill-opacity:1;stroke-width:2.52165318"
     d="M 300.42526,702.44599 C 186.16018,575.03352 87.315266,463.51696 80.769916,454.63136 c -13.36816,-18.14784 -30.63834,-55.3031 -36.70197,-78.96107 -2.27427,-8.87332 -4.60592,-30.74905 -5.36174,-50.30432 -1.1467,-29.66867 -0.58198,-38.12357 3.96008,-59.29242 18.60724,-86.72056 82.757624,-154.85043 162.901344,-173.00669 26.11723,-5.91677 69.87917,-5.18938 95.00247,1.5791 37.92096,10.21631 72.94992,31.45625 97.31641,59.00818 6.1603,6.96563 27.05687,33.35521 46.43684,58.64353 38.02254,49.61442 44.59365,55.24104 64.89897,55.57095 20.41883,0.33171 27.13848,-5.53493 69.85511,-60.98787 21.62006,-28.06618 45.30106,-56.93931 52.62455,-64.16254 17.63191,-17.39046 43.76576,-33.12434 72.08328,-43.39767 19.97918,-7.24828 27.37032,-8.54167 54.95515,-9.61679 18.8959,-0.73647 38.48815,-9e-4 48.12416,1.80597 69.75969,13.0831 134.53691,70.01952 160.34201,140.93368 9.7034,26.66591 13.9581,51.93197 13.9832,83.03838 0.053,64.09357 -19.3157,114.58028 -62.86925,163.88635 -58.62046,66.36318 -406.97894,453.78341 -408.4218,454.21858 -0.94533,0.28477 -95.2084,-103.72824 -209.47347,-231.14072 z"
     id="path879"
     inkscape:connector-curvature="0" />
</svg>
