<?xml version="1.0" encoding="UTF-8" standalone="no"?>
<svg
   xmlns:dc="http://purl.org/dc/elements/1.1/"
   xmlns:cc="http://creativecommons.org/ns#"
   xmlns:rdf="http://www.w3.org/1999/02/22-rdf-syntax-ns#"
   xmlns:svg="http://www.w3.org/2000/svg"
   xmlns="http://www.w3.org/2000/svg"
   xmlns:sodipodi="http://sodipodi.sourceforge.net/DTD/sodipodi-0.dtd"
   xmlns:inkscape="http://www.inkscape.org/namespaces/inkscape"
   t="1619957082077"
   class="icon"
   viewBox="0 0 1024 1024"
   version="1.1"
   p-id="3881"
   width="200"
   height="200"
   id="svg944"
   sodipodi:docname="next.svg"
   inkscape:version="0.92.4 (5da689c313, 2019-01-14)">
  <metadata
     id="metadata948">
    <rdf:RDF>
      <cc:Work
         rdf:about="">
        <dc:format>image/svg+xml</dc:format>
        <dc:type
           rdf:resource="http://purl.org/dc/dcmitype/StillImage" />
        <dc:title></dc:title>
      </cc:Work>
    </rdf:RDF>
  </metadata>
  <sodipodi:namedview
     pagecolor="#ffffff"
     bordercolor="#666666"
     borderopacity="1"
     objecttolerance="10"
     gridtolerance="10"
     guidetolerance="10"
     inkscape:pageopacity="0"
     inkscape:pageshadow="2"
     inkscape:window-width="1280"
     inkscape:window-height="683"
     id="namedview946"
     showgrid="false"
     inkscape:zoom="2.3415625"
     inkscape:cx="100"
     inkscape:cy="100"
     inkscape:window-x="0"
     inkscape:window-y="0"
     inkscape:window-maximized="1"
     inkscape:current-layer="svg944" />
  <defs
     id="defs940">
    <style
       type="text/css"
       id="style938" />
  </defs>
  <path
     d="M779.991102 65.334008 243.964896 65.334008c-98.585319 0-178.674379 79.958076-178.674379 178.587398L65.290517 779.946588c0 98.717326 80.090083 178.718381 178.674379 178.718381l536.025183 0c98.759281 0 178.717358-80.002079 178.717358-178.718381L958.707436 243.921405C958.70846 145.292084 878.74936 65.334008 779.991102 65.334008zM869.414761 735.300762c0 74.003458-60.067051 134.049019-134.050042 134.049019L288.634258 869.349781c-73.982992 0-133.919059-60.045561-133.919059-134.049019L154.715199 288.676725c0-74.091462 59.936067-134.049019 133.919059-134.049019l446.731484 0c73.982992 0 134.050042 59.957557 134.050042 134.049019L869.415784 735.300762zM646.07102 333.347111l89.293699 0L735.364719 690.652889l-89.293699 0L646.07102 534.312168 333.389578 690.652889 333.389578 333.347111l312.682465 156.318208L646.072043 333.347111z"
     p-id="3882"
     fill="#336699"
     id="path942"
     style="fill:#262623;fill-opacity:1" />
</svg>
