<?xml version="1.0" standalone="no"?><!DOCTYPE svg PUBLIC "-//W3C//DTD SVG 1.1//EN" "http://www.w3.org/Graphics/SVG/1.1/DTD/svg11.dtd"><svg t="1620365824790" class="icon" viewBox="0 0 1024 1024" version="1.1" xmlns="http://www.w3.org/2000/svg" p-id="2854" xmlns:xlink="http://www.w3.org/1999/xlink" width="200" height="200"><defs><style type="text/css"></style></defs><path d="M442.8 684c8.1-8.1 13.2-19.4 13.2-31.7V371.8c0-24.7-20.2-45-45-45-12.4 0-23.6 5.1-31.7 13.2s-13.2 19.4-13.2 31.7v280.6c0 24.7 20.2 45 45 45 12.1-0.1 23.4-5.1 31.7-13.3zM644.8 684c8.1-8.1 13.2-19.4 13.2-31.7V371.8c0-24.7-20.2-45-45-45-12.4 0-23.6 5.1-31.7 13.2-8.1 8.1-13.2 19.4-13.2 31.7v280.6c0 24.7 20.2 45 45 45 12.1-0.1 23.4-5.1 31.7-13.3z" fill="#262623" p-id="2855"></path><path d="M512 136.3c50.7 0 99.9 9.9 146.2 29.5 44.7 18.9 84.9 46 119.5 80.6 34.5 34.5 61.6 74.7 80.6 119.5 19.6 46.3 29.5 95.5 29.5 146.2s-9.9 99.9-29.5 146.2c-18.9 44.7-46 84.9-80.6 119.5-34.5 34.5-74.7 61.6-119.5 80.6-46.3 19.6-95.5 29.5-146.2 29.5s-99.9-9.9-146.2-29.5c-44.7-18.9-84.9-46-119.4-80.6-34.5-34.5-61.6-74.7-80.6-119.5-19.6-46.3-29.5-95.5-29.5-146.2s9.9-99.9 29.5-146.2c18.9-44.7 46-84.9 80.6-119.5 34.5-34.5 74.7-61.6 119.4-80.6 46.3-19.6 95.5-29.5 146.2-29.5m0-70C265.9 66.3 66.3 265.9 66.3 512S265.9 957.7 512 957.7 957.7 758.1 957.7 512 758.1 66.3 512 66.3z" fill="#262623" p-id="2856"></path></svg>