<?xml version="1.0" encoding="UTF-8" standalone="no"?>
<svg
   xmlns:dc="http://purl.org/dc/elements/1.1/"
   xmlns:cc="http://creativecommons.org/ns#"
   xmlns:rdf="http://www.w3.org/1999/02/22-rdf-syntax-ns#"
   xmlns:svg="http://www.w3.org/2000/svg"
   xmlns="http://www.w3.org/2000/svg"
   xmlns:sodipodi="http://sodipodi.sourceforge.net/DTD/sodipodi-0.dtd"
   xmlns:inkscape="http://www.inkscape.org/namespaces/inkscape"
   t="1618123149195"
   class="icon"
   viewBox="0 0 1024 1024"
   version="1.1"
   p-id="5925"
   width="200"
   height="200"
   id="svg62"
   sodipodi:docname="play.svg"
   inkscape:version="0.92.4 (5da689c313, 2019-01-14)">
  <metadata
     id="metadata66">
    <rdf:RDF>
      <cc:Work
         rdf:about="">
        <dc:format>image/svg+xml</dc:format>
        <dc:type
           rdf:resource="http://purl.org/dc/dcmitype/StillImage" />
        <dc:title></dc:title>
      </cc:Work>
    </rdf:RDF>
  </metadata>
  <sodipodi:namedview
     pagecolor="#ffffff"
     bordercolor="#666666"
     borderopacity="1"
     objecttolerance="10"
     gridtolerance="10"
     guidetolerance="10"
     inkscape:pageopacity="0"
     inkscape:pageshadow="2"
     inkscape:window-width="1280"
     inkscape:window-height="683"
     id="namedview64"
     showgrid="false"
     inkscape:zoom="2.44"
     inkscape:cx="100"
     inkscape:cy="100.89441"
     inkscape:window-x="0"
     inkscape:window-y="0"
     inkscape:window-maximized="1"
     inkscape:current-layer="svg62" />
  <defs
     id="defs58">
    <style
       type="text/css"
       id="style56" />
  </defs>
  <path
     d="M512 64c247.424 0 448 200.576 448 448S759.424 960 512 960 64 759.424 64 512 264.576 64 512 64z m0 80c-203.24 0-368 164.76-368 368s164.76 368 368 368 368-164.76 368-368-164.76-368-368-368z m-80 197.427a32 32 0 0 1 16 4.288l240.003 138.573c15.305 8.836 20.549 28.407 11.712 43.713a32 32 0 0 1-11.712 11.711L448.001 678.285c-15.306 8.837-34.877 3.594-43.713-11.711A32 32 0 0 1 400 650.573V373.427c0-17.673 14.327-32 32-32z"
     p-id="5926"
     fill="#ffffff"
     id="path60"
     style="fill:#262623;fill-opacity:1" />
</svg>
