<?xml version="1.0" standalone="no"?><!DOCTYPE svg PUBLIC "-//W3C//DTD SVG 1.1//EN" "http://www.w3.org/Graphics/SVG/1.1/DTD/svg11.dtd"><svg t="1620034246302" class="icon" viewBox="0 0 1024 1024" version="1.1" xmlns="http://www.w3.org/2000/svg" p-id="2017" xmlns:xlink="http://www.w3.org/1999/xlink" width="200" height="200"><defs><style type="text/css"></style></defs><path d="M314.002 658.286H182.857a36.571 36.571 0 0 1 0-73.143h256v256a36.571 36.571 0 1 1-73.143 0V709.998L189.147 886.565a36.571 36.571 0 1 1-51.712-51.712l176.567-176.567z m395.996-292.572h131.145a36.571 36.571 0 1 1 0 73.143h-256v-256a36.571 36.571 0 0 1 73.143 0v131.145l176.567-176.567a36.571 36.571 0 1 1 51.712 51.712L709.998 365.714zM73.143 0h877.714A73.143 73.143 0 0 1 1024 73.143v877.714A73.143 73.143 0 0 1 950.857 1024H73.143A73.143 73.143 0 0 1 0 950.857V73.143A73.143 73.143 0 0 1 73.143 0z m0 73.143v877.714h877.714V73.143H73.143z" p-id="2018" fill="#ffffff"></path></svg>