<?xml version="1.0" encoding="UTF-8" standalone="no"?>
<svg
   xmlns:dc="http://purl.org/dc/elements/1.1/"
   xmlns:cc="http://creativecommons.org/ns#"
   xmlns:rdf="http://www.w3.org/1999/02/22-rdf-syntax-ns#"
   xmlns:svg="http://www.w3.org/2000/svg"
   xmlns="http://www.w3.org/2000/svg"
   xmlns:sodipodi="http://sodipodi.sourceforge.net/DTD/sodipodi-0.dtd"
   xmlns:inkscape="http://www.inkscape.org/namespaces/inkscape"
   t="1619957734885"
   class="icon"
   viewBox="0 0 1024 1024"
   version="1.1"
   p-id="22044"
   width="200"
   height="200"
   id="svg1610"
   sodipodi:docname="random.svg"
   inkscape:version="0.92.4 (5da689c313, 2019-01-14)">
  <metadata
     id="metadata1614">
    <rdf:RDF>
      <cc:Work
         rdf:about="">
        <dc:format>image/svg+xml</dc:format>
        <dc:type
           rdf:resource="http://purl.org/dc/dcmitype/StillImage" />
        <dc:title></dc:title>
      </cc:Work>
    </rdf:RDF>
  </metadata>
  <sodipodi:namedview
     pagecolor="#ffffff"
     bordercolor="#666666"
     borderopacity="1"
     objecttolerance="10"
     gridtolerance="10"
     guidetolerance="10"
     inkscape:pageopacity="0"
     inkscape:pageshadow="2"
     inkscape:window-width="1280"
     inkscape:window-height="683"
     id="namedview1612"
     showgrid="false"
     inkscape:zoom="2.3415625"
     inkscape:cx="16.722274"
     inkscape:cy="100"
     inkscape:window-x="0"
     inkscape:window-y="0"
     inkscape:window-maximized="1"
     inkscape:current-layer="svg1610" />
  <defs
     id="defs1606">
    <style
       type="text/css"
       id="style1604" />
  </defs>
  <path
     d="M1009.942 718.058c18.746 18.746 18.746 49.138 0 67.882l-160 159.968c-30.02 30.02-81.942 8.98-81.942-33.942V832h-117.57a24.008 24.008 0 0 1-17.546-7.624l-141.112-151.192 106.666-114.286L704 672h64v-79.962c0-42.876 51.886-63.996 81.942-33.942l160 159.962zM24 352h168l105.562 113.102 106.666-114.286-141.112-151.192A23.998 23.998 0 0 0 245.57 192H24c-13.254 0-24 10.746-24 24v112c0 13.254 10.746 24 24 24z m744 0v79.968c0 42.92 51.922 63.96 81.942 33.942l160-159.968c18.746-18.746 18.746-49.138 0-67.882l-160-159.962C819.886 48.042 768 69.164 768 112.038V192h-117.57a24.008 24.008 0 0 0-17.546 7.624L192 672H24c-13.254 0-24 10.746-24 24v112c0 13.254 10.746 24 24 24h221.57c6.652 0 13.006-2.762 17.546-7.624L704 352h64z"
     fill="#336699"
     p-id="22045"
     id="path1608"
     style="fill:#262623;fill-opacity:1" />
</svg>
