<?xml version="1.0" encoding="UTF-8" standalone="no"?>
<svg
   xmlns:dc="http://purl.org/dc/elements/1.1/"
   xmlns:cc="http://creativecommons.org/ns#"
   xmlns:rdf="http://www.w3.org/1999/02/22-rdf-syntax-ns#"
   xmlns:svg="http://www.w3.org/2000/svg"
   xmlns="http://www.w3.org/2000/svg"
   xmlns:sodipodi="http://sodipodi.sourceforge.net/DTD/sodipodi-0.dtd"
   xmlns:inkscape="http://www.inkscape.org/namespaces/inkscape"
   t="1621169662562"
   class="icon"
   viewBox="0 0 1024 1024"
   version="1.1"
   p-id="2811"
   width="200"
   height="200"
   id="svg62"
   sodipodi:docname="sound-on.svg"
   inkscape:version="0.92.4 (5da689c313, 2019-01-14)">
  <metadata
     id="metadata66">
    <rdf:RDF>
      <cc:Work
         rdf:about="">
        <dc:format>image/svg+xml</dc:format>
        <dc:type
           rdf:resource="http://purl.org/dc/dcmitype/StillImage" />
        <dc:title></dc:title>
      </cc:Work>
    </rdf:RDF>
  </metadata>
  <sodipodi:namedview
     pagecolor="#ffffff"
     bordercolor="#666666"
     borderopacity="1"
     objecttolerance="10"
     gridtolerance="10"
     guidetolerance="10"
     inkscape:pageopacity="0"
     inkscape:pageshadow="2"
     inkscape:window-width="1280"
     inkscape:window-height="683"
     id="namedview64"
     showgrid="false"
     inkscape:zoom="2.44"
     inkscape:cx="100"
     inkscape:cy="100"
     inkscape:window-x="0"
     inkscape:window-y="0"
     inkscape:window-maximized="1"
     inkscape:current-layer="svg62" />
  <defs
     id="defs58">
    <style
       type="text/css"
       id="style56" />
  </defs>
  <path
     d="m 772.71966,240.44281 a 46.082881,48.003747 0 0 1 65.11511,-67.82929 c 179.95363,187.45464 179.95363,491.41434 0,678.86898 a 46.082881,48.003747 0 0 1 -65.16119,-67.87731 368.66304,384.02997 0 0 0 0,-543.11438 z m -130.36847,135.8026 a 46.108514,48.030448 0 1 1 65.20728,-67.92531 276.49728,288.02249 0 0 1 0,407.3598 46.108511,48.030445 0 0 1 -65.20728,-67.9253 184.33152,192.01499 0 0 0 0,-271.50919 z m -498.98543,39.7471 v 240.01873 a 46.082881,48.003747 0 0 1 -92.16576,0 V 367.98877 A 46.082881,48.003747 0 0 1 97.282877,319.98501 H 219.40252 L 437.14413,138.53084 a 46.082881,48.003747 0 0 1 74.88468,37.44294 v 672.05245 a 46.082881,48.003747 0 0 1 -74.88468,37.44293 L 206.72972,693.45417 a 46.082881,48.003747 0 1 1 57.6036,-74.88585 L 419.86305,748.17843 V 275.82158 L 264.33332,405.43169 a 46.082881,48.003747 0 0 1 -28.8018,10.56082 z"
     p-id="2812"
     id="path60"
     inkscape:connector-curvature="0"
     style="fill:#262623;stroke-width:1.10234797" />
</svg>
