<?xml version="1.0" encoding="UTF-8" standalone="no"?>
<svg
   xmlns:dc="http://purl.org/dc/elements/1.1/"
   xmlns:cc="http://creativecommons.org/ns#"
   xmlns:rdf="http://www.w3.org/1999/02/22-rdf-syntax-ns#"
   xmlns:svg="http://www.w3.org/2000/svg"
   xmlns="http://www.w3.org/2000/svg"
   xmlns:sodipodi="http://sodipodi.sourceforge.net/DTD/sodipodi-0.dtd"
   xmlns:inkscape="http://www.inkscape.org/namespaces/inkscape"
   t="1621056752483"
   class="icon"
   viewBox="0 0 1024 1024"
   version="1.1"
   p-id="3808"
   width="200"
   height="200"
   id="svg62"
   sodipodi:docname="user.svg"
   inkscape:version="0.92.4 (5da689c313, 2019-01-14)">
  <metadata
     id="metadata66">
    <rdf:RDF>
      <cc:Work
         rdf:about="">
        <dc:format>image/svg+xml</dc:format>
        <dc:type
           rdf:resource="http://purl.org/dc/dcmitype/StillImage" />
        <dc:title></dc:title>
      </cc:Work>
    </rdf:RDF>
  </metadata>
  <sodipodi:namedview
     pagecolor="#ffffff"
     bordercolor="#666666"
     borderopacity="1"
     objecttolerance="10"
     gridtolerance="10"
     guidetolerance="10"
     inkscape:pageopacity="0"
     inkscape:pageshadow="2"
     inkscape:window-width="1280"
     inkscape:window-height="683"
     id="namedview64"
     showgrid="false"
     inkscape:zoom="2.44"
     inkscape:cx="100"
     inkscape:cy="111.24201"
     inkscape:window-x="0"
     inkscape:window-y="0"
     inkscape:window-maximized="1"
     inkscape:current-layer="svg62" />
  <defs
     id="defs58">
    <style
       type="text/css"
       id="style56" />
  </defs>
  <path
     d="m 729.088,370.55016 a 165.888,159.41907 0 0 1 94.8142,290.249 c 112.21402,16.68586 195.3423,63.44879 199.9135,129.16487 l 0.1843,5.70366 v 106.27938 a 73.727999,70.852922 0 0 1 -68.19841,70.6758 L 950.27199,972.8 H 507.904 A 73.727999,70.852922 0 0 1 434.36032,907.26105 L 434.176,901.94707 V 795.66769 c 0,-68.72734 84.63974,-117.6867 200.09779,-134.90396 A 165.888,159.41907 0 0 1 729.088,370.55016 Z M 839.67999,51.712003 a 73.727999,70.852922 0 0 1 73.54368,65.538957 l 0.18432,5.31397 v 177.1323 a 36.864,35.426462 0 0 1 -73.46995,4.1449 l -0.25805,-4.1449 V 122.56493 H 176.128 v 779.38214 h 147.456 a 36.864,35.426462 0 0 1 4.31309,70.60495 L 323.584,972.8 H 176.128 A 73.727999,70.852922 0 0 1 102.58432,907.26105 L 102.4,901.94707 V 122.56493 a 73.727999,70.852922 0 0 1 68.1984,-70.675794 l 5.5296,-0.177133 z M 729.088,724.81477 c -64.6226,0 -124.74778,10.48624 -167.95239,28.27032 -33.61996,13.81632 -50.87232,29.36854 -53.01043,40.31531 l -0.22118,2.26729 V 901.94707 H 950.27199 V 795.66769 c 0,-10.9822 -17.21548,-27.73892 -53.23161,-42.5826 C 853.83577,735.30101 793.71059,724.81477 729.088,724.81477 Z m 0,-283.41169 a 92.159999,88.566153 0 1 0 0,177.1323 92.159999,88.566153 0 0 0 0,-177.1323 z M 434.176,335.1237 a 36.864,35.426462 0 0 1 0,70.85292 H 286.72 a 36.864,35.426462 0 0 1 0,-70.85292 z m 73.728,-141.70585 a 36.864003,35.426465 0 0 1 0,70.85293 H 286.72 a 36.864003,35.426465 0 1 1 0,-70.85293 z"
     p-id="3809"
     id="path60"
     inkscape:connector-curvature="0"
     style="fill:#ffffff;stroke-width:1.12931502" />
  <path
     style="fill:#ffffff;stroke-width:1.16058326"
     inkscape:connector-curvature="0"
     id="path106"
     p-id="3809"
     d="m 729.088,362.33847 a 165.888,168.36922 0 0 1 94.8142,306.54425 c 112.21402,17.62264 195.3423,67.01095 199.9135,136.41648 l 0.1843,6.02388 v 112.24614 a 73.727999,74.830768 0 0 1 -68.19841,74.64371 L 950.27199,998.4 H 507.904 A 73.727999,74.830768 0 0 1 434.36032,929.18154 L 434.176,923.56922 V 811.32308 c 0,-72.58586 84.63974,-124.29391 200.09779,-142.47778 A 165.888,168.36922 0 0 1 729.088,362.33847 Z M 839.67999,25.600004 a 73.727999,74.830768 0 0 1 73.54368,69.218464 l 0.18432,5.612312 v 187.07691 a 36.864,37.415385 0 0 1 -73.46995,4.37761 l -0.25805,-4.37761 V 100.43078 H 176.128 v 823.13844 h 147.456 a 36.864,37.415385 0 0 1 4.31309,74.56888 L 323.584,998.4 H 176.128 A 73.727999,74.830768 0 0 1 102.58432,929.18154 L 102.4,923.56922 V 100.43078 a 73.727999,74.830768 0 0 1 68.1984,-74.643699 l 5.5296,-0.187077 z M 729.088,736.49231 c -64.6226,0 -124.74778,11.07496 -167.95239,29.85748 -33.61996,14.592 -50.87232,31.01736 -53.01043,42.5787 l -0.22118,2.39459 V 923.56922 H 950.27199 V 811.32308 c 0,-11.59877 -17.21548,-29.29625 -53.23161,-44.97329 C 853.83577,747.56727 793.71059,736.49231 729.088,736.49231 Z m 0,-299.32307 a 92.159999,93.53846 0 1 0 0,187.07691 92.159999,93.53846 0 0 0 0,-187.07691 z M 434.176,324.92309 a 36.864,37.415385 0 0 1 0,74.83076 H 286.72 a 36.864,37.415385 0 0 1 0,-74.83076 z m 73.728,-149.66154 a 36.864003,37.415388 0 0 1 0,74.83077 H 286.72 a 36.864003,37.415388 0 1 1 0,-74.83077 z" />
</svg>
